<?xml version="1.0" standalone="no"?>
<svg xmlns:xlink="http://www.w3.org/1999/xlink" id="wave" style="transform:rotate(0deg); transition: 0.3s" viewBox="0 0 1440 300" version="1.1" xmlns="http://www.w3.org/2000/svg"><defs><linearGradient id="sw-gradient-0" x1="0" x2="0" y1="1" y2="0"><stop stop-color="rgba(37, 147, 221, 1)" offset="0%"/><stop stop-color="rgba(0, 182, 255, 1)" offset="100%"/></linearGradient></defs><path style="transform:translate(0, 0px); opacity:1" fill="url(#sw-gradient-0)" d="M0,60L80,90C160,120,320,180,480,185C640,190,800,140,960,105C1120,70,1280,50,1440,70C1600,90,1760,150,1920,145C2080,140,2240,70,2400,80C2560,90,2720,180,2880,220C3040,260,3200,250,3360,215C3520,180,3680,120,3840,90C4000,60,4160,60,4320,75C4480,90,4640,120,4800,140C4960,160,5120,170,5280,160C5440,150,5600,120,5760,115C5920,110,6080,130,6240,125C6400,120,6560,90,6720,100C6880,110,7040,160,7200,150C7360,140,7520,70,7680,80C7840,90,8000,180,8160,205C8320,230,8480,190,8640,185C8800,180,8960,210,9120,190C9280,170,9440,100,9600,75C9760,50,9920,70,10080,95C10240,120,10400,150,10560,170C10720,190,10880,200,11040,205C11200,210,11360,210,11440,210L11520,210L11520,300L11440,300C11360,300,11200,300,11040,300C10880,300,10720,300,10560,300C10400,300,10240,300,10080,300C9920,300,9760,300,9600,300C9440,300,9280,300,9120,300C8960,300,8800,300,8640,300C8480,300,8320,300,8160,300C8000,300,7840,300,7680,300C7520,300,7360,300,7200,300C7040,300,6880,300,6720,300C6560,300,6400,300,6240,300C6080,300,5920,300,5760,300C5600,300,5440,300,5280,300C5120,300,4960,300,4800,300C4640,300,4480,300,4320,300C4160,300,4000,300,3840,300C3680,300,3520,300,3360,300C3200,300,3040,300,2880,300C2720,300,2560,300,2400,300C2240,300,2080,300,1920,300C1760,300,1600,300,1440,300C1280,300,1120,300,960,300C800,300,640,300,480,300C320,300,160,300,80,300L0,300Z"/></svg>